<svg width="140" height="91" viewBox="0 0 140 91" fill="none" xmlns="http://www.w3.org/2000/svg">
<path d="M103.837 9.99878H118.518V0.847968L104.769 0.827868L87.922 0.806787V0.800781C93.5573 0.83291 97.886 2.36675 100.908 5.40229C102.21 6.69908 103.21 8.26867 103.837 9.99878Z" fill="#262626"/>
<path d="M93.985 90.2889H103.793V60.2654L93.985 45.4556V90.2889Z" fill="#262626"/>
<path d="M116.575 63.3281L116.381 79.2756H116.634L129.353 59.8959V90.2869H139.161V44.144H128.444L116.575 63.3281Z" fill="#262626"/>
<path d="M42.949 12.46L48.949 27.1695H58.979L47.659 0.47168H38.495L14.931 56.0784C17.2874 53.793 20.4472 52.5347 23.723 52.577C25.8547 52.5449 27.9647 53.01 29.887 53.9357C31.8451 54.9349 33.6576 56.1988 35.274 57.6921L41.599 50.37C40.561 49.3277 39.4389 48.3734 38.244 47.5172C37.0141 46.6447 35.6941 45.9078 34.307 45.3191C32.9631 44.7606 31.5709 44.3274 30.148 44.0249L33.407 35.9918L36.952 27.1785L42.949 12.46Z" fill="#262626"/>
<path d="M77.032 45.3451V0.796875H67.095V43.3721H67.159C70.4553 43.3351 73.7254 43.9637 76.775 45.2206C76.865 45.2608 76.941 45.304 77.032 45.3451Z" fill="#262626"/>
<path d="M70.643 80.6472C69.5023 80.9382 68.3299 81.085 67.153 81.0841C65.2549 81.1097 63.3737 80.7233 61.638 79.9514C58.3388 78.4672 55.7619 75.7279 54.474 72.3361C53.8022 70.5794 53.463 68.7121 53.474 66.8304V66.6979C53.4606 64.8264 53.7999 62.9692 54.474 61.2243C55.1152 59.565 56.0555 58.0388 57.248 56.7219C58.0573 55.8425 58.9873 55.0835 60.01 54.4676L56.634 46.1563L56.444 45.6875C54.0091 46.8185 51.791 48.3703 49.891 50.2723C47.7625 52.4101 46.0648 54.9402 44.891 57.724C43.6759 60.6038 43.0603 63.7028 43.082 66.8304V66.959C43.0582 70.0836 43.6626 73.1809 44.859 76.0654C46.0041 78.8389 47.6953 81.3516 49.831 83.4529C52.0198 85.5851 54.592 87.2803 57.411 88.4484C60.4615 89.7057 63.7327 90.3343 67.03 90.2969C69.4362 90.2419 71.8286 89.9152 74.162 89.323L70.643 80.6472Z" fill="#262626"/>
<path d="M139.159 9.99978V0.795898L118.519 0.848115V44.1462H128.457V9.99978H139.159Z" fill="white"/>
<path d="M95.101 29.9579C97.8667 28.9635 100.294 27.2008 102.101 24.8749C103.976 22.2709 104.919 19.1071 104.778 15.897V15.7674C104.805 13.804 104.485 11.8514 103.831 10.0008C103.2 8.2724 102.203 6.70224 100.908 5.39882C97.886 2.36366 93.5573 0.829677 87.922 0.796875H77.033V9.8039H86.906C88.9475 9.6814 90.9706 10.253 92.649 11.4265C93.3527 12.0141 93.9073 12.7612 94.267 13.6062C94.6267 14.4511 94.7813 15.3699 94.718 16.2866V16.4191C94.7545 17.2943 94.5973 18.1667 94.2577 18.9736C93.9181 19.7805 93.4045 20.5017 92.754 21.0853C91.1501 22.3462 89.1396 22.9691 87.107 22.8346H77.033V31.6478H84.846L93.991 45.4626L103.8 60.2746L116.389 79.2837L116.589 63.3412L95.101 29.9579Z" fill="white"/>
<path d="M67.152 43.3732H67.088C66.673 43.3732 66.258 43.3792 65.857 43.3993L58.98 27.1646H36.945L33.4 35.9789H52.5L56.44 45.6847L56.63 46.1537L60.006 54.4649L60.026 54.512C60.4989 54.198 60.9931 53.9175 61.505 53.6727C63.2453 52.9184 65.1247 52.542 67.02 52.5681C68.9072 52.5485 70.7768 52.9346 72.503 53.7007C74.1466 54.4267 75.6297 55.4741 76.8658 56.7818C78.102 58.0894 79.0665 59.6312 79.703 61.3171C80.3767 63.0735 80.7175 64.9406 80.708 66.8227V66.9513C80.7197 68.8231 80.3788 70.6802 79.703 72.4247C79.064 74.086 78.1234 75.6138 76.929 76.9303C75.7287 78.2385 74.2664 79.2767 72.638 79.9768C72.299 80.1264 71.957 80.25 71.6 80.3674C71.281 80.4729 70.957 80.5683 70.633 80.6486L74.155 89.3203C75.0093 89.0783 75.8487 88.7863 76.669 88.4457C79.489 87.299 82.0557 85.6042 84.2215 83.4586C86.3874 81.3131 88.1099 78.7591 89.29 75.9432C90.5065 73.0635 91.1222 69.9639 91.099 66.8358V66.7072C91.1228 63.5826 90.5184 60.4853 89.322 57.6008C88.178 54.8267 86.4867 52.3138 84.35 50.2134C82.2283 48.1505 79.7449 46.4997 77.025 45.3443C76.934 45.3032 76.855 45.259 76.765 45.2209C73.7173 43.9611 70.4476 43.3325 67.152 43.3732Z" fill="white"/>
<path d="M15.704 44.6554C15.673 44.664 15.6426 44.6748 15.613 44.6875C15.148 44.8492 14.681 45.0248 14.228 45.2126C11.4393 46.3801 8.91418 48.1012 6.80399 50.2725C4.73174 52.424 3.08793 54.9532 1.961 57.7242C0.794489 60.6167 0.204676 63.7109 0.224995 66.8316V66.9602C0.205343 70.0914 0.798225 73.1959 1.96999 76.0977C3.0752 78.8751 4.72453 81.4014 6.82019 83.5267C8.91586 85.6521 11.4152 87.3333 14.17 88.4706C17.0918 89.6995 20.2324 90.3176 23.4 90.2871C25.3924 90.3082 27.3817 90.1221 29.336 89.7318C31.0211 89.3948 32.6585 88.8505 34.211 88.1111C35.6702 87.419 37.0458 86.5615 38.311 85.5556C39.5966 84.5235 40.8034 83.396 41.921 82.1827L35.596 75.7643C33.9975 77.2862 32.2085 78.5925 30.274 79.6503C28.2382 80.6583 25.9867 81.148 23.718 81.0762C21.9341 81.0974 20.1666 80.7321 18.536 80.0054C16.9054 79.2787 15.45 78.2074 14.269 76.8648C13.1035 75.5329 12.1957 73.9944 11.592 72.3282C10.9394 70.5671 10.6117 68.7015 10.625 66.8225V66.691C10.6122 64.8225 10.94 62.9676 11.592 61.2175C12.2099 59.5608 13.1285 58.0334 14.301 56.7129C14.482 56.5121 14.701 56.3635 14.901 56.1727L14.945 56.0723L20.224 43.6211C18.6883 43.8222 17.1749 44.1685 15.704 44.6554Z" fill="white"/>
</svg>
