<svg width="32" height="32" viewBox="0 0 32 32" fill="none" xmlns="http://www.w3.org/2000/svg">
<path d="M24.4711 6.30481C24.1108 6.30402 23.7583 6.41013 23.4583 6.60974C23.1583 6.80935 22.9243 7.09347 22.7859 7.42615C22.6474 7.75882 22.6108 8.12514 22.6806 8.47864C22.7504 8.83214 22.9235 9.15692 23.178 9.41199C23.4326 9.66706 23.757 9.84091 24.1104 9.9115C24.4637 9.98209 24.83 9.9463 25.163 9.80859C25.496 9.67089 25.7807 9.43749 25.9809 9.13794C26.1812 8.83839 26.2881 8.48618 26.2881 8.12585C26.2884 7.64351 26.0971 7.18068 25.7564 6.83923C25.4157 6.49779 24.9534 6.3056 24.4711 6.30481ZM16.3791 21.1838C15.41 21.1838 14.4626 20.8965 13.6568 20.358C12.851 19.8196 12.223 19.0543 11.8521 18.1589C11.4812 17.2636 11.3842 16.2784 11.5732 15.3279C11.7623 14.3774 12.229 13.5042 12.9143 12.819C13.5996 12.1337 14.4726 11.667 15.4232 11.4779C16.3737 11.2888 17.3589 11.386 18.2542 11.7568C19.1496 12.1277 19.9149 12.7557 20.4533 13.5615C20.9917 14.3673 21.2791 15.3147 21.2791 16.2838C21.2792 16.9274 21.1526 17.5647 20.9064 18.1593C20.6602 18.7539 20.2993 19.2942 19.8443 19.7493C19.3892 20.2044 18.849 20.5655 18.2545 20.8118C17.6599 21.0581 17.0226 21.1848 16.3791 21.1848V21.1838ZM16.3791 8.64185C14.8667 8.64105 13.388 9.08879 12.1301 9.92847C10.8722 10.7681 9.89158 11.962 9.31226 13.359C8.73293 14.7561 8.58095 16.2935 8.87552 17.777C9.17009 19.2604 9.89798 20.6232 10.9671 21.6929C12.0363 22.7626 13.3987 23.4913 14.882 23.7866C16.3652 24.082 17.9028 23.9308 19.3002 23.3522C20.6975 22.7736 21.8919 21.7936 22.7322 20.5361C23.5726 19.2787 24.0211 17.8002 24.0211 16.2878C24.0179 14.2618 23.2119 12.3195 21.7795 10.8866C20.3471 9.45365 18.4052 8.64679 16.3791 8.64282V8.64185ZM10.0501 3.68384C8.35383 3.68754 6.72812 4.36295 5.52869 5.56238C4.32925 6.76181 3.65378 8.38761 3.65009 10.0839V22.4838C3.65299 24.1803 4.32823 25.8065 5.52783 27.0061C6.72744 28.2057 8.35359 28.8809 10.0501 28.8838H22.4501C24.1481 28.883 25.7764 28.2087 26.9779 27.0089C28.1794 25.8091 28.8559 24.1817 28.8591 22.4838V10.0839C28.8551 8.38614 28.1783 6.7592 26.977 5.55957C25.7757 4.35994 24.1478 3.68542 22.4501 3.68384H10.0501ZM22.4501 31.8088H10.0501C7.57783 31.8059 5.20768 30.8225 3.45953 29.0743C1.71139 27.3262 0.728009 24.956 0.725098 22.4838V10.0839C0.728009 7.61161 1.71139 5.24143 3.45953 3.49329C5.20768 1.74514 7.57783 0.7617 10.0501 0.758789H22.4501C24.9224 0.7617 27.2925 1.74514 29.0406 3.49329C30.7888 5.24143 31.7722 7.61161 31.7751 10.0839V22.4838C31.7724 24.9569 30.7886 27.3279 29.0396 29.0764C27.2905 30.8249 24.9192 31.808 22.4461 31.8098L22.4501 31.8088Z" fill="#E5E5E5"/>
</svg>
