<svg width="199" height="128" viewBox="0 0 199 128" fill="none" xmlns="http://www.w3.org/2000/svg">
<path d="M147.707 13.5522H168.637V0.560181L149.037 0.53125L125.02 0.502197V0.494141C133.053 0.539474 139.224 2.71722 143.532 7.02722C145.387 8.86824 146.813 11.0963 147.707 13.5522Z" fill="white"/>
<path d="M133.663 127.538H147.644V84.9194L133.663 63.8875V127.538Z" fill="white"/>
<path d="M165.867 89.2625L165.59 111.902H165.95L184.081 84.3925V127.539H198.063V62.0294H182.787L165.867 89.2625Z" fill="white"/>
<path d="M60.908 17.0435L69.466 37.9264H83.766L67.629 0.0263672H54.558L20.966 78.9714C24.3253 75.7276 28.8295 73.9415 33.499 74.0015C36.5381 73.9559 39.5464 74.6161 42.287 75.9304C45.0782 77.349 47.6619 79.1434 49.966 81.2634L58.983 70.8634C57.5032 69.3837 55.9034 68.029 54.2 66.8134C52.4468 65.5746 50.5653 64.5282 48.588 63.6924C46.6722 62.8993 44.6875 62.284 42.659 61.8544L47.305 50.4543L52.359 37.9424L60.908 17.0435Z" fill="white"/>
<path d="M109.496 63.7314V0.485474H95.33V60.9304H95.422C100.121 60.878 104.783 61.7707 109.13 63.5554C109.258 63.6104 109.366 63.6724 109.496 63.7314Z" fill="white"/>
<path d="M100.387 113.851C98.761 114.264 97.0897 114.472 95.412 114.471C92.7061 114.507 90.0243 113.959 87.55 112.863C82.8468 110.756 79.1731 106.866 77.337 102.051C76.3808 99.5564 75.8988 96.9053 75.916 94.2339V94.0459C75.8955 91.3891 76.3776 88.7525 77.337 86.2749C78.2509 83.9193 79.5913 81.7523 81.291 79.8828C82.445 78.6346 83.771 77.5571 85.229 76.6829L80.417 64.8828L80.146 64.2168C76.6748 65.8221 73.5127 68.025 70.804 70.7249C67.768 73.7595 65.346 77.3515 63.671 81.3038C61.9387 85.3926 61.0611 89.7925 61.092 94.2329V94.4159C61.0579 98.8521 61.9195 103.249 63.625 107.345C65.2561 111.282 67.6656 114.85 70.709 117.834C73.8314 120.86 77.5005 123.265 81.521 124.922C85.8698 126.707 90.5333 127.6 95.234 127.547C98.6642 127.468 102.075 127.004 105.401 126.163L100.387 113.851Z" fill="white"/>
<path d="M198.063 13.5514V0.484375L168.639 0.55835V62.0293H182.806V13.5514H198.063Z" fill="#F85F11"/>
<path d="M135.253 41.8855C139.196 40.4736 142.656 37.9708 145.232 34.6685C147.774 31.3851 149.046 27.1368 149.049 21.9235V21.7395C149.088 18.952 148.631 16.1799 147.699 13.5525C146.799 11.0986 145.378 8.86917 143.532 7.01843C139.224 2.70977 133.053 0.53214 125.02 0.485474H109.496V13.2725H123.57C127.062 13.2725 129.799 14.0395 131.758 15.5725C133.717 17.1055 134.708 19.4064 134.708 22.4724V22.6604C134.76 23.903 134.536 25.1417 134.051 26.2872C133.567 27.4328 132.835 28.4566 131.908 29.2854C130.029 30.9394 127.345 31.7671 123.858 31.7684H109.503V44.2804H120.641L133.679 63.8934L147.662 84.9225L165.608 111.91L165.887 89.2765L135.253 41.8855Z" fill="#F85F11"/>
<path d="M95.412 60.9318H95.324C94.732 60.9318 94.141 60.9407 93.57 60.9697L83.77 37.9277H52.349L47.295 50.4408H74.524L80.141 64.2197L80.412 64.8867L85.224 76.6868L85.253 76.7538C85.927 76.3078 86.6314 75.9094 87.361 75.5618C89.8426 74.4925 92.5221 73.9599 95.224 73.9988C97.9145 73.9708 100.58 74.5191 103.041 75.6068C105.383 76.6381 107.496 78.1252 109.257 79.9814C111.018 81.8377 112.392 84.0259 113.299 86.4187C114.259 88.9123 114.745 91.5635 114.732 94.2357V94.4187C114.749 97.0762 114.262 99.7129 113.299 102.19C112.389 104.549 111.048 106.72 109.345 108.59C107.634 110.447 105.549 111.921 103.228 112.915C102.745 113.128 102.257 113.303 101.749 113.469C101.295 113.619 100.832 113.748 100.37 113.869L105.391 126.169C106.608 125.825 107.805 125.411 108.974 124.928C112.994 123.3 116.653 120.893 119.741 117.847C122.828 114.801 125.284 111.175 126.966 107.178C128.7 103.09 129.578 98.6894 129.545 94.2488V94.0658C129.579 89.6296 128.717 85.2321 127.012 81.1367C125.381 77.1987 122.97 73.6315 119.924 70.6498C116.9 67.721 113.359 65.3771 109.482 63.7367C109.353 63.6787 109.24 63.6158 109.111 63.5618C104.768 61.7714 100.109 60.8768 95.412 60.9318Z" fill="#F85F11"/>
<path d="M22.067 62.7511C22.023 62.7636 21.9799 62.779 21.938 62.7971C21.276 63.0261 20.609 63.2761 19.963 63.5431C15.9876 65.2004 12.388 67.6437 9.37999 70.7262C6.42737 73.781 4.08541 77.3717 2.47999 81.3052C0.817033 85.4114 -0.0238595 89.804 0.0049904 94.2341V94.4171C-0.0235569 98.8632 0.821436 103.272 2.49199 107.392C4.06672 111.335 6.4172 114.922 9.40404 117.94C12.3909 120.958 15.9533 123.345 19.88 124.96C24.0453 126.705 28.5223 127.582 33.038 127.539C35.8786 127.569 38.7147 127.305 41.501 126.751C43.9033 126.273 46.2375 125.5 48.451 124.451C50.5302 123.468 52.4902 122.25 54.293 120.822C56.1255 119.357 57.8457 117.757 59.439 116.035L50.422 106.922C48.1435 109.083 45.593 110.938 42.835 112.439C39.9329 113.871 36.7233 114.566 33.489 114.464C30.9458 114.494 28.4259 113.976 26.1012 112.944C23.7765 111.912 21.7016 110.391 20.018 108.485C18.3562 106.594 17.0617 104.41 16.201 102.044C15.2705 99.5439 14.8032 96.895 14.822 94.2272V94.0402C14.804 91.3874 15.2713 88.7537 16.201 86.2692C17.0814 83.9153 18.3909 81.7452 20.063 79.8691C20.321 79.5861 20.638 79.3692 20.913 79.1031L20.976 78.9572L28.501 61.2871C26.3151 61.5718 24.1609 62.062 22.067 62.7511Z" fill="#F85F11"/>
</svg>
