<?xml version="1.0" encoding="utf-8"?>
<!-- Generator: Adobe Illustrator 26.4.1, SVG Export Plug-In . SVG Version: 6.00 Build 0)  -->
<svg version="1.1" id="Capa_1" xmlns="http://www.w3.org/2000/svg" xmlns:xlink="http://www.w3.org/1999/xlink" x="0px" y="0px"
	 viewBox="0 0 1080 1080" style="enable-background:new 0 0 1080 1080;" xml:space="preserve">
<style type="text/css">
	.st0{fill:#FFFFFF;}
	.st1{font-family:'Ebrima';}
	.st2{font-size:64.7307px;}
</style>
<g>
	<text transform="matrix(1 0 0 1 334.0659 317.5205)"><tspan x="0" y="0" class="st0 st1 st2">UNIVERSIDAD DE</tspan><tspan x="0" y="77.68" class="st0 st1 st2">MONTEMORELOS</tspan></text>
	<g>
		<path class="st0" d="M291.32,392.33c-4.52-7.81-9.51-14.15-15.26-19.37c-0.89-0.81-2.12-1.03-3.12-1.22l-0.4-0.08
			c-12.8-2.52-25.61-5.02-38.42-7.53l-8.33-1.63c-3.24-0.63-6.22-0.46-9.13,0.52c-6.67,2.25-9.19,1.34-12.85-4.68
			c-8.74-14.35-8.8-29.39-0.18-44.72c0.78-1.39,1.57-2.77,2.36-4.16c5.2-9.13,10.59-18.58,13.49-29.27
			c2.15-7.93-1.95-25.5-7.97-29.15l-0.85-0.52l-0.81,0.59c-1.31,0.95-1.39,2.27-1.45,3.15c-0.02,0.3-0.04,0.58-0.09,0.75
			c-0.89,2.59-1.51,5.26-2.11,7.85c-0.89,3.85-1.74,7.49-3.42,10.96c-2.41,4.97-5.38,9.79-8.25,14.45
			c-4.67,7.58-9.51,15.42-12.23,24.33c-2.59,8.47-2.81,17.66-0.63,27.3c2.16,9.55,8.97,16.33,16.37,23
			c6.36,5.74,7.06,10.02,2.57,15.81c-0.55,0.71-1.18,1.36-1.84,2.06c-1.58,1.65-3.22,3.36-3.97,5.95c-0.07,0.24-0.6,0.64-1.18,0.53
			c-0.09-0.1-0.19-0.55-0.25-0.82c-0.08-0.33-0.15-0.66-0.26-0.97c-7.14-20.38-18.88-23.78-36.77-22.77
			c-6.02,0.34-12.41,1.86-17.86,3.31c-1.33,0.35-2.66,0.74-3.99,1.13c-3.94,1.15-8.01,2.34-12.2,2.56
			c-3.95,0.21-8.86,0.79-11.75,3.42c-5.79,5.28-9.97,12.25-13.44,18.36c-0.75,1.33-0.8,2.73-0.13,3.75
			c0.39,0.59,1.36,1.54,3.49,1.31c1.09-0.12,2.24-0.2,3.34-0.27c2.75-0.19,5.59-0.38,8.28-1.22c4.78-1.49,9.82-2.23,14.69-2.95
			c1.87-0.27,3.75-0.55,5.61-0.86c3.87-0.65,7.76-1.43,11.53-2.18c3.73-0.74,7.58-1.51,11.38-2.16c11.31-1.92,20.65-0.71,28.56,3.69
			c6.33,3.52,11.07,5.47,18.93,0.63c14-8.6,30.16-4.81,44.41-1.47c2.27,0.53,4.52,0.75,6.71,0.96c2.27,0.22,4.41,0.42,6.54,0.95
			c10.9,2.72,19.4,4.27,27.57,5.01c0.18,0.02,0.45,0.04,0.78,0.04c0.88,0,2.12-0.18,2.78-1.22
			C291.94,394.89,292.21,393.86,291.32,392.33z"/>
		<path class="st0" d="M175.44,355l3.28,0.38l-1.87-2.72c-0.25-0.37-0.5-0.75-0.74-1.13c-0.57-0.88-1.15-1.79-1.88-2.62
			c-6.1-6.96-7.03-15.93-7.13-23.79c-0.14-10.64,3.06-21.41,9.26-31.15c9.83-15.44,17.07-28.91,20.48-44.42
			c1.83-8.33-0.84-15.29-4.24-22.88l-0.82-1.83l-1.52,1.3c-1.15,0.98-1.69,2.02-1.6,3.1c1.02,12.16-5.04,21.62-11.46,31.63
			l-0.21,0.33c-3.08,4.81-6.63,9.42-10.07,13.89c-5.03,6.54-10.24,13.29-14.16,20.89c-8.1,15.67-7.6,30.55,1.48,44.21
			C158.04,345.94,164.4,353.73,175.44,355z"/>
		<path class="st0" d="M219.33,316.22c-0.86,1.54-1.87,3.1-2.84,4.6c-3.47,5.36-7.05,10.91-5.98,18.07c0,0.65-0.01,1.27-0.02,1.87
			c-0.02,1.39-0.03,2.7,0.05,4.01c0.01,0.23,0.01,0.48,0.02,0.73c0.01,1.37,0.01,3.66,2.38,4.54c0.46,0.17,0.88,0.24,1.27,0.24
			c1.7,0,2.8-1.38,3.44-2.19c0.16-0.2,0.31-0.4,0.48-0.58c3.29-3.67,7.01-7.83,10.71-11.77c9.23-9.84,11.34-27.87,4.62-39.39
			c-0.09-0.16-0.2-0.46-0.31-0.74c-0.36-1-1.33-3.65-4.25-2.71c-2.29,0.73-3.15,3.28-2.97,5.35c0.49,5.81-2.22,10.43-5.08,15.33
			C220.34,314.45,219.83,315.33,219.33,316.22z"/>
	</g>
</g>
</svg>
