<svg width="85" height="99" viewBox="0 0 85 99" fill="none" xmlns="http://www.w3.org/2000/svg">
<path d="M14.4802 10.0557C19.5886 6.00456 25.7827 3.55993 32.2794 3.03101C38.7761 2.50208 45.2837 3.91259 50.9794 7.08418C56.675 10.2558 61.3029 15.046 64.2779 20.8493C67.253 26.6525 68.4416 33.2081 67.6934 39.6872C66.9452 46.1663 64.2939 52.278 60.0747 57.2495C55.8554 62.2209 50.2578 65.8289 43.9894 67.6173C37.721 69.4056 31.0634 69.294 24.8584 67.2966C18.6535 65.2991 13.1797 61.5055 9.12925 56.3954C3.70054 49.5392 1.21466 40.8067 2.21806 32.1172C3.22146 23.4277 7.63201 15.4925 14.4802 10.0557V10.0557Z" stroke="#F85F11" stroke-width="4" stroke-linecap="round" stroke-linejoin="round"/>
<path d="M55.4122 61.7539L82.7982 96.3043" stroke="#F85F11" stroke-width="4" stroke-linecap="round" stroke-linejoin="round"/>
</svg>
