<svg width="26" height="21" viewBox="0 0 26 21" fill="none" xmlns="http://www.w3.org/2000/svg">
<path d="M1.00107 6.50778C2.80107 7.54278 4.47307 8.50778 6.14407 9.46678C8.19407 10.6488 10.2561 11.8118 12.2841 13.0288C12.5597 13.2254 12.8893 13.3323 13.2278 13.3348C13.5664 13.3373 13.8975 13.2353 14.1761 13.0428C17.7491 10.9498 21.3431 8.89178 24.9301 6.82278C25.1631 6.68878 25.4001 6.56078 25.7361 6.37378C25.7531 6.68378 25.7781 6.91778 25.7781 7.15178C25.7781 10.8418 25.7781 14.5321 25.7781 18.2228C25.7781 20.0418 24.9241 20.8848 23.0871 20.8858C16.6204 20.8858 10.1511 20.8858 3.67908 20.8858C3.31392 20.9399 2.94115 20.9076 2.59076 20.7914C2.24037 20.6753 1.92214 20.4785 1.66165 20.2169C1.40116 19.9554 1.20567 19.6363 1.09094 19.2855C0.97621 18.9346 0.945436 18.5617 1.00107 18.1968C1.00107 14.5521 1.00107 10.9075 1.00107 7.26279V6.50778Z" fill="#818181"/>
<path d="M13.4101 0.594238C16.6891 0.594238 19.9681 0.588238 23.2471 0.594238C23.6073 0.554246 23.9719 0.599252 24.3116 0.725646C24.6513 0.852041 24.9567 1.0563 25.2031 1.32204C25.4496 1.58778 25.6304 1.9076 25.7309 2.25584C25.8315 2.60407 25.849 2.97102 25.7821 3.32724C25.7686 3.44242 25.7313 3.55355 25.6726 3.65356C25.6139 3.75358 25.5351 3.8403 25.4411 3.90824C21.4918 6.21157 17.5331 8.49857 13.5651 10.7692C13.4593 10.8141 13.3451 10.8354 13.2303 10.8318C13.1155 10.8281 13.0028 10.7996 12.9001 10.7482C9.05007 8.54824 5.2094 6.33024 1.37807 4.09424C1.27755 4.01896 1.19405 3.92331 1.13304 3.81354C1.07204 3.70377 1.03491 3.58235 1.02407 3.45724C0.930066 1.50424 1.81906 0.593239 3.77806 0.592239C6.98606 0.592239 10.1967 0.592904 13.4101 0.594238Z" fill="#818181"/>
</svg>
