<svg width="23" height="23" viewBox="0 0 23 23" fill="none" xmlns="http://www.w3.org/2000/svg">
<path d="M5.12409 0.895508C6.87711 1.6921 8.31256 3.05325 9.2011 4.76151C9.3291 5.01724 9.42451 5.28803 9.48509 5.56751C9.55562 5.77387 9.5597 5.99715 9.49673 6.20594C9.43377 6.41473 9.30695 6.59854 9.13409 6.73151C8.59609 7.15151 8.0451 7.55751 7.4731 7.93151C7.21524 8.03777 6.9849 8.20121 6.79945 8.40952C6.61401 8.61782 6.47832 8.86552 6.40262 9.13394C6.32692 9.40236 6.31319 9.68447 6.36247 9.95897C6.41175 10.2335 6.52275 10.4932 6.6871 10.7185C7.04022 11.3956 7.48993 12.0178 8.02209 12.5655C9.1621 13.7195 10.3551 14.8235 11.5791 15.8885C12.0049 16.2198 12.4929 16.4622 13.0141 16.6015C13.353 16.7379 13.7301 16.7447 14.0737 16.6208C14.4173 16.4969 14.7033 16.2508 14.8771 15.9295C15.2921 15.3475 15.6621 14.7295 16.1091 14.1735C16.1954 14.0124 16.315 13.8715 16.46 13.7602C16.6049 13.6489 16.7719 13.5697 16.9498 13.5279C17.1277 13.4861 17.3125 13.4826 17.4919 13.5177C17.6712 13.5528 17.8411 13.6257 17.9901 13.7315C19.8483 14.5781 21.3331 16.0747 22.1651 17.9395V18.3225C21.7522 19.1878 21.1343 19.9392 20.3651 20.5115C19.5781 21.1725 18.7651 21.7975 17.9571 22.4385H17.2871C17.0731 22.3895 16.8591 22.3465 16.6471 22.2925C12.8108 21.3264 9.28621 19.3929 6.4101 16.6765C4.67932 14.927 3.28003 12.8782 2.2801 10.6295C1.5059 9.09681 0.947597 7.46432 0.621094 5.77851V5.10851C1.09709 4.49751 1.55909 3.87451 2.05409 3.27951C2.7421 2.27886 3.66327 1.46065 4.7381 0.895508H5.12409Z" fill="#818181"/>
</svg>
