<svg width="32" height="32" viewBox="0 0 32 32" fill="none" xmlns="http://www.w3.org/2000/svg">
<path d="M21.3502 17.7845C21.0446 17.5412 20.6881 17.3699 20.3072 17.2834C19.9264 17.1968 19.5309 17.1972 19.1502 17.2845C18.5792 17.5215 18.2172 18.4135 17.8502 18.8675C17.7716 18.9755 17.656 19.0508 17.5255 19.0792C17.395 19.1076 17.2586 19.0871 17.1422 19.0215C15.0579 18.2023 13.31 16.7052 12.1802 14.7715C12.0848 14.6485 12.04 14.4937 12.0546 14.3388C12.0693 14.1839 12.1424 14.0404 12.2592 13.9374C12.6804 13.536 12.9905 13.0324 13.1592 12.4755C13.1914 11.8714 13.0528 11.2704 12.7592 10.7415C12.5261 9.98942 12.0822 9.31987 11.4802 8.81244C11.1701 8.67059 10.8255 8.62182 10.4882 8.67206C10.1509 8.72229 9.83547 8.86946 9.58017 9.09552C9.14284 9.47371 8.79575 9.94493 8.56439 10.4748C8.33303 11.0047 8.22327 11.5797 8.24316 12.1575C8.24564 12.4848 8.28625 12.8106 8.36417 13.1285C8.56669 13.8856 8.87974 14.6087 9.29318 15.2745C9.59189 15.7856 9.91734 16.2807 10.2682 16.7575C11.4093 18.3233 12.8426 19.6534 14.4892 20.6745C15.3144 21.1911 16.1966 21.6105 17.1182 21.9245C18.077 22.3586 19.1349 22.5272 20.1812 22.4125C20.7772 22.3189 21.3415 22.0818 21.8256 21.7217C22.3097 21.3617 22.699 20.8894 22.9602 20.3455C23.1099 20.0156 23.1549 19.6477 23.0892 19.2914C22.9252 18.5674 21.9422 18.1395 21.3502 17.7845ZM8.77118 26.0175L9.30017 26.3305C11.915 27.8869 15.0089 28.4328 17.9985 27.8653C20.988 27.2978 23.6667 25.656 25.5292 23.2496C27.3917 20.8432 28.3094 17.8386 28.1092 14.8022C27.909 11.7658 26.6048 8.90758 24.4425 6.76654C22.2802 4.6255 19.4093 3.34954 16.3711 3.17938C13.3329 3.00923 10.3374 3.95663 7.94952 5.84283C5.56167 7.72904 3.94647 10.4237 3.40851 13.4188C2.87054 16.4138 3.447 19.5022 5.02917 22.1015L5.35419 22.6315L4.10818 27.2685L8.77118 26.0175ZM0.00817871 31.3635L2.23718 23.0635C0.447883 19.8277 -0.114463 16.0551 0.653381 12.4382C1.42123 8.8212 3.46774 5.60241 6.41733 3.37262C9.36692 1.14283 13.0217 0.0516039 16.711 0.299134C20.4003 0.546663 23.8765 2.11632 26.5018 4.72015C29.1271 7.32399 30.7253 10.7873 31.0031 14.4744C31.2808 18.1616 30.2196 21.8251 28.0141 24.7929C25.8085 27.7607 22.6067 29.8336 18.9962 30.631C15.3856 31.4285 11.6086 30.8972 8.35818 29.1345L0.00817871 31.3635Z" fill="#E5E5E5"/>
</svg>
