<svg width="32" height="23" viewBox="0 0 32 23" fill="none" xmlns="http://www.w3.org/2000/svg">
<path d="M31.7711 7.38989C31.7716 6.48068 31.593 5.58027 31.2454 4.74011C30.8978 3.89996 30.3881 3.13651 29.7454 2.49341C29.1027 1.85031 28.3395 1.34013 27.4996 0.992065C26.6596 0.644003 25.7593 0.464844 24.8501 0.464844H7.15109C6.24165 0.464712 5.34109 0.643732 4.50085 0.991699C3.66062 1.33967 2.89716 1.84973 2.25409 2.4928C1.61102 3.13587 1.10093 3.89938 0.75296 4.73962C0.404993 5.57986 0.225943 6.48045 0.226074 7.38989V15.6278C0.226074 16.537 0.405233 17.4374 0.753296 18.2773C1.10136 19.1173 1.61151 19.8805 2.25461 20.5232C2.89771 21.1659 3.66116 21.6756 4.50131 22.0232C5.34147 22.3708 6.24188 22.5494 7.15109 22.5488H24.8511C25.7601 22.5494 26.6603 22.3707 27.5003 22.0231C28.3402 21.6754 29.1034 21.1657 29.7462 20.5229C30.3889 19.8802 30.8987 19.1169 31.2463 18.277C31.594 17.437 31.7726 16.5368 31.7721 15.6278L31.7711 7.38989ZM21.3631 12.1278L13.4261 16.0529C13.1131 16.2199 12.0551 15.9949 12.0551 15.6399V7.58191C12.0551 7.22391 13.1221 6.99785 13.4341 7.17285L21.0341 11.3069C21.3511 11.4899 21.6831 11.9508 21.3621 12.1268L21.3631 12.1278Z" fill="#E5E5E5"/>
</svg>
